# xmcd
#
# Track frame offsets: 
#        150
#        14524
#        25792
#        47663
#        57572
#        72778
#        86170
#        97607
#        109969
#        121631
#        132430
#        147186
#        159879
#        173303
#        186427
#        199941
#        214318
#        228333
#        241748
#        256434
#        266990
#        277850
#        296615
#        309139
#        320378
#
# Disc length: 4420 seconds
#
# Revision: 0
# Processed by: cddbd v1.5.2PL0 Copyright (c) Steve Scherf et al.
# Submitted via: ExactAudioCopy v1.1
#
DISCID=5d114219
DTITLE=John Lee Hooker - Boogie Chillen' - 50 Original All-Time Classi
DTITLE=cs [CD1]
DYEAR=1950
DGENRE=Blues
TTITLE0=Boogie Chillen' (original 1948 version)
TTITLE1=Boom Boom
TTITLE2=Baby, Please Don't Go
TTITLE3=Dimples
TTITLE4=Smokestack Lightnin'
TTITLE5=Crawlin' King Snake (original 1948 version)
TTITLE6=Little Wheel
TTITLE7=I'm In The Mood
TTITLE8=I Love You Honey
TTITLE9=Maudie
TTITLE10=Burning Hell
TTITLE11=Hobo Blues
TTITLE12=How Can You Do It
TTITLE13=I'm So Excited
TTITLE14=Time Is Marching
TTITLE15=Key To The Highway
TTITLE16=Let's Talk It Over
TTITLE17=Whiskey And Wimmen'
TTITLE18=Sugar Mama
TTITLE19=Dusty Road
TTITLE20=I Need Some Money
TTITLE21=One Of These Days
TTITLE22=No More Doggin'
TTITLE23=You've Taken My Woman
TTITLE24=Shake, Holler and Run
EXTD=
EXTT0=
EXTT1=
EXTT2=
EXTT3=
EXTT4=
EXTT5=
EXTT6=
EXTT7=
EXTT8=
EXTT9=
EXTT10=
EXTT11=
EXTT12=
EXTT13=
EXTT14=
EXTT15=
EXTT16=
EXTT17=
EXTT18=
EXTT19=
EXTT20=
EXTT21=
EXTT22=
EXTT23=
EXTT24=
PLAYORDER=
